<?xml version="1.0" encoding="utf-8"?>
<!-- Generator: Adobe Illustrator 18.1.1, SVG Export Plug-In . SVG Version: 6.00 Build 0)  -->
<!DOCTYPE svg PUBLIC "-//W3C//DTD SVG 1.1//EN" "http://www.w3.org/Graphics/SVG/1.1/DTD/svg11.dtd">
<svg version="1.1" id="Layer_1" xmlns="http://www.w3.org/2000/svg" xmlns:xlink="http://www.w3.org/1999/xlink" x="0px" y="0px"
	 width="256px" height="256px" viewBox="0 0 256 256" style="enable-background:new 0 0 256 256;" xml:space="preserve">
<style type="text/css">
	.st0{fill:#3B3A33;}
</style>
<g>
	<path class="st0" d="M41.3,111l0.3-0.3c0.4-1.6,1.1-6.9-3.9-11.9c-5-5-10.9-5.2-12.7-5.1l-0.1,0.1c0,1.8,0.3,7.8,5.1,13
		C34.8,111.9,39.8,111.3,41.3,111z"/>
	<path class="st0" d="M142.1,173.3c3.5-3.7,3.7-8,3.7-9.4l0,0c-1.3-0.1-5.6,0.1-9.2,3.7c-0.7,0.7-1.2,1.3-1.6,2v-14
		c3.1,2.8,7.1,4.4,11.5,4.4h46.9c6.2,0,11.6-3.3,14.7-8.3h10.2c9.6,0,17.5-8.1,17.5-18.1v-16.7c1.6,0.1,4.4-0.3,7.1-3.2
		c3.5-3.7,3.7-8.1,3.7-9.4l0,0c-1.3-0.1-5.6,0.1-9.2,3.7c-0.6,0.6-1.1,1.3-1.5,1.9v-1c0-1.7-1.4-3.1-3-3.1c-1.7,0-3,1.4-3,3.1v12.9
		c-0.1-0.1-0.2-0.2-0.2-0.3c-3.6-3.6-7.9-3.7-9.2-3.7l0,0.1c0,1.3,0.2,5.7,3.7,9.4c2.1,2.2,4.2,3,5.8,3.2v3.3
		c0,6.5-5.1,11.8-11.5,11.8h-7.8c0.2-0.9,0.3-1.8,0.3-2.8c0.2-1.4,0.3-4.4-2.7-7.4c-3.3-3.3-7.1-3.4-8.3-3.3l0,0
		c0,1.2,0.2,5.1,3.3,8.5c0.6,0.6,1.1,1.1,1.7,1.5c0,0,0,0,0,0c0,6.5-5.1,11.8-11.5,11.8h-11c2.7-3.2,4.3-7.3,4.3-11.8v-23.7
		c2.1,0.2,6.3,0,10.4-4.4c4.8-5.1,5.1-11.2,5.1-13l-0.1-0.1c-1.8-0.1-7.7,0.1-12.7,5.1c-1.2,1.2-2.1,2.4-2.7,3.6V91.5
		c0-0.2,0-0.3,0-0.5c0,0,0-0.2,0-0.4c1.1,0.2,4.2,0.4,7.3-2.8c3.1-3.4,3.3-7.3,3.3-8.5l0,0c-1.2,0-5,0.1-8.3,3.3c-1,1-1.6,2-2.1,2.9
		c0.3-2.3,1.2-5,2.9-7.2c2.3-2.8,6-4.2,11-4.2c1.7,0,3-1.4,3-3.1c0-1.7-1.4-3.1-3-3.1c-6.8,0-12,2.1-15.5,6.3
		c-5.4,6.5-4.7,15.7-4.5,17.4v8.4c-0.6-1.5-1.6-3.1-3.2-4.6c-5-5-10.9-5.2-12.7-5.1l-0.1,0.1c0,1.8,0.3,7.8,5.1,13
		c4.5,4.8,9,4.6,10.9,4.3v17.1c-0.7-1.2-1.7-2.5-2.9-3.7c-6.2-6.2-13.6-6.4-15.8-6.3l-0.1,0.1c0,2.3,0.3,9.7,6.3,16.1
		c4.8,5.2,9.8,5.7,12.5,5.5v5.3c0,6.5-5.1,11.8-11.5,11.8h-22.6c-6.1,0-11.1-4.9-11.4-11.1l0.1,0.1c1.1,0.2,4.7,0.6,8.2-3.1
		c3.5-3.7,3.7-8,3.7-9.4l-0.1,0c-1.3-0.1-5.6,0.1-9.2,3.7c-1.7,1.6-2.4,3.3-2.8,4.8V128c0.3,0.1,0.7,0.2,1.1,0.2
		c9.6,0,17.5-8.1,17.5-18.1V94.3c1.5,0.2,4.5-0.1,7.4-3.2c3.5-3.7,3.7-8,3.7-9.4l0,0c-1.3-0.1-5.6,0.1-9.2,3.7
		c-0.8,0.8-1.4,1.7-1.9,2.5V60.4c1.6,0.3,6.5,0.8,11.3-4.3c4.8-5.1,5.1-11.2,5.1-13l-0.1-0.1c-1.8-0.1-7.7,0.1-12.7,5.1
		c-1.9,1.9-3,3.8-3.6,5.6V36.6c0-1.7-1.4-3.1-3-3.1c-1.2,0-2.2,0.7-2.7,1.7c-0.5-2.6-1.9-5.7-4.9-8.6c-6.2-6.2-13.6-6.4-15.8-6.3
		l-0.1,0.1c0,2.3,0.3,9.7,6.3,16.1c6,6.4,12.2,5.7,14.1,5.3l0,0v23.1c-0.6-1.5-1.6-3.1-3.2-4.6c-5-5-10.9-5.2-12.7-5.1l-0.1,0.1
		c0,1.8,0.3,7.8,5.1,13c4.5,4.8,9,4.6,10.9,4.3v37.7c0,6.5-5.1,11.8-11.5,11.8c-0.4,0-0.8,0.1-1.1,0.2V117c0,0,0,0,0-0.1v-9.2l0,0
		c1,0.2,4.2,0.6,7.4-2.8c3.1-3.3,3.3-7.2,3.3-8.4l0,0c-1.2,0-5,0.1-8.3,3.3c-1.3,1.3-2,2.7-2.4,3.9V84.8c0-10-7.9-18.1-17.5-18.1
		h-3.2c-0.1-1.7-0.7-4.1-3-6.4c-3.6-3.5-7.8-3.7-9-3.6l0,0c0,1.3,0.2,5.5,3.6,9.2c0.3,0.3,0.5,0.5,0.8,0.7H96.4
		c-0.5-2.7-1.8-5.9-5-9c-6.2-6.2-13.6-6.4-15.8-6.3l-0.1,0.1c0,2.3,0.3,9.7,6.3,16.1c5.6,6,11.4,5.8,13.7,5.4h21.9
		c6.3,0,11.5,5.3,11.5,11.8v8.9c-0.7-2.2-2.1-4.6-4.4-6.9c-6.2-6.2-13.6-6.4-15.8-6.3l-0.1,0.1c0,2.3,0.3,9.7,6.3,16.1
		c5.9,6.3,12,5.7,14,5.3v30c0,0,0,0,0,0v9.8c-0.6-1.4-1.6-2.9-3.1-4.4c-5-5-10.9-5.2-12.7-5.1l-0.1,0.1c0,1.8,0.3,7.8,5.1,13
		c4.4,4.7,8.8,4.6,10.8,4.4v7.1c0,6.5-5.1,11.8-11.5,11.8h-10.6c2.7-3.2,4.3-7.3,4.3-11.8V118c1.4,0.2,4.5,0.1,7.5-3.1
		c3.4-3.6,3.6-7.8,3.6-9.1l0,0c-1.2-0.1-5.4,0.1-8.9,3.6c-1,1-1.6,2-2.1,2.9v-5.9c0-9.6-7.3-17.5-16.5-18c-0.5-1-1.1-2.1-2.2-3.1
		c-3.6-3.5-7.8-3.7-9-3.6l0,0c0,1.3,0.2,5.5,3.6,9.2c1.7,1.8,3.3,2.6,4.8,2.9c0.5,0.5,1.2,0.8,2,0.8c6.3,0,11.5,5.3,11.5,11.8v17.3
		c-0.6-1.4-1.6-2.8-3-4.2c-5-5-10.9-5.2-12.7-5.1l-0.1,0.1c0,1.8,0.3,7.8,5.1,13c4.3,4.6,8.7,4.7,10.7,4.4v17.7
		c-0.7-2-1.9-4.1-4-6.2c-5.7-5.6-12.4-5.8-14.4-5.7l-0.1,0.1c0,2.1,0.3,8.9,5.7,14.7c5.4,5.7,10.8,5.2,12.7,4.8
		c-0.2,6.3-5.2,11.4-11.4,11.4h-10H70.1v-4.9c1.6,0.3,5.3,0.3,9-3.6c4-4.3,4.2-9.2,4.2-10.8l-0.1-0.1c-1.5-0.1-6.4,0.1-10.6,4.2
		c-1.3,1.3-2.1,2.6-2.6,3.8v-25.6c1.4,0.2,4.5,0.1,7.5-3.1c3.4-3.6,3.6-7.8,3.6-9.1l0,0c-1.3-0.1-5.4,0.1-8.9,3.6
		c-1,1-1.6,1.9-2.1,2.8c0.3-6.2,5.3-11.2,11.4-11.2c1.7,0,3-1.4,3-3.1s-1.4-3.1-3-3.1c-9.6,0-17.5,8.1-17.5,18.1v10
		c-0.4-1-1.1-2.1-2.2-3.2c-3.3-3.3-7.2-3.4-8.4-3.4l0,0c0,1.2,0.2,5.2,3.4,8.6c3,3.2,6.1,3.1,7.3,2.9v27.3h-4.6
		c-5.5,0-10-4-11.2-9.2l0.1,0.1c1.3,0.3,5.4,0.7,9.4-3.5c4-4.3,4.2-9.2,4.2-10.8l0-0.1c-1.5-0.1-6.4,0.1-10.6,4.2
		c-2.3,2.3-3.1,4.6-3.4,6.5v-38.2c0,0.2,0.1,0.4,0.1,0.6l0.3,0.3c1.5,0.3,6.5,0.9,11.3-4.3c4.8-5.1,5.1-11.2,5.1-13l-0.1-0.1
		c-1.8-0.1-7.7,0.1-12.7,5.1c-2.7,2.6-3.7,5.4-4,7.6V90.7c0-1.7-1.4-3.1-3-3.1c-1.7,0-3,1.4-3,3.1v39.6c-0.8-1.9-2-3.8-4-5.8
		c-6.2-6.2-13.6-6.4-15.8-6.3l-0.1,0.1c0,2.3,0.3,9.7,6.3,16.1c5.5,5.9,11.2,5.8,13.6,5.4v17.1c0,4.5,1.6,8.7,4.3,11.8H32
		c-5.2,0-9.6-3.6-11-8.6c2.1,0.3,6.4,0.1,10.6-4.4c4.8-5.1,5.1-11.2,5.1-13l-0.1-0.1c-1.8-0.1-7.7,0.1-12.7,5.1
		c-2.5,2.5-3.6,5-4,7.2c-0.6-0.7-1.4-1.2-2.3-1.2c-0.5,0-1,0.1-1.4,0.4c-0.3-1.4-1-3.1-2.6-4.7c-3.3-3.3-7.2-3.4-8.4-3.4l0,0
		c0,1.2,0.2,5.2,3.4,8.6c2.3,2.4,4.6,2.9,6.1,2.9c0.4,9.6,8.1,17.3,17.5,17.3h27.4H64v2c0,0.6,0,1.2,0.1,1.8c-2.8-1.9-5.7-2-6.7-1.9
		l0,0c0,1.2,0.2,5.2,3.4,8.6c2.9,3.1,5.9,3.1,7.2,2.9c2.8,3.6,6.9,6,11.5,6.6c-1.6,0.4-3.5,1.3-5.3,3.3c-3.8,4-4,8.7-4,10.1l0,0.1
		c1.4,0.1,6-0.1,9.9-4c3.9-3.9,3.4-8,3.1-9.3l0,0H102c-0.9,0.4-1.9,1.1-2.8,2.2c-3.2,3.4-3.4,7.3-3.3,8.5l0,0
		c1.2,0.1,5.1-0.1,8.4-3.3c2.9-2.9,2.9-5.9,2.7-7.3c5.8,0.6,10.3,5.6,10.3,11.8v18.7c0,6.5-5.1,11.8-11.5,11.8c-1.7,0-3,1.4-3,3.1
		c0,1.7,1.3,3.1,3,3.1c9.6,0,17.5-8.1,17.5-18.1v-18.7c0-2.7-0.6-5.4-1.7-7.7c7.6-1.9,13.3-9.1,13.3-17.5v-5.1
		C136.5,176.6,139.3,176.2,142.1,173.3z M117.5,193.4c-3.1-2.9-7.2-4.7-11.7-4.7h-0.1c0,0,0,0,0,0H87.7c0.8-0.4,1.7-1.1,2.6-2
		c3.1-3.3,3.3-7.2,3.3-8.4l0,0c-1.2-0.1-5,0.1-8.3,3.3c-2.8,2.8-2.9,5.7-2.7,7.2h-1.1c-6.3,0-11.5-5.3-11.5-11.8v-2h13.5h10h23.8
		c4.4,0,8.4-1.7,11.5-4.4v11.1C128.9,188.1,123.8,193.4,117.5,193.4z"/>
	<path class="st0" d="M153.8,36.6c1,0.2,4.2,0.6,7.4-2.8c3.1-3.3,3.3-7.2,3.3-8.4l0,0c-1.2,0-5,0.1-8.3,3.3
		c-3.3,3.2-2.8,6.7-2.6,7.7L153.8,36.6z"/>
	<path class="st0" d="M251.3,141.6L251.3,141.6c-1.3-0.1-5.6,0-9.3,3.6c-0.5,0.5-1,1.1-1.3,1.6c-0.4-1.2-1.5-2-2.8-2
		c-1.7,0-3,1.4-3,3.1V166c-0.6-1.5-1.6-3.2-3.3-4.8c-5-4.9-10.9-5.1-12.6-5l-0.1,0.1c0,1.8,0.3,7.8,5,12.9c4.5,4.8,9,4.6,10.9,4.3
		c-0.3,6.3-5.3,11.3-11.4,11.3h-27.9c1-0.6,2.1-1.4,3.1-2.5c4.5-4.8,4.8-10.4,4.7-12.1l-0.1-0.1c-1.7-0.1-7.2,0.1-11.9,4.8
		c-3.8,3.8-4.1,7.8-3.9,10h-13c-5.9,0-10.8-4.6-11.4-10.6h19.5c0.9,0,1.7-0.4,2.2-1c1.4-0.1,3.3-0.7,5.2-2.8c3-3.2,3.2-6.9,3.2-8.1
		l0,0c-1.1,0-4.8,0.1-7.9,3.2c-0.9,0.9-1.5,1.8-1.9,2.6c-0.3-0.1-0.5-0.1-0.8-0.1h-24.1c-9.6,0-17.5,8.1-17.5,18.1v39.5
		c0,10,7.8,18.1,17.5,18.1c1.7,0,3-1.4,3-3.1s-1.3-3.1-3-3.1c-6.3,0-11.5-5.3-11.5-11.8v-20.2c1,0.1,3-0.1,4.9-2.1
		c2.3-2.5,2.4-5.3,2.4-6.2l0,0c-0.9,0-3.7,0-6.1,2.4c-0.5,0.5-0.9,1.1-1.2,1.6v-7.8c1.4,0.1,3.7-0.3,6-2.8c3-3.2,3.2-6.9,3.2-8.1
		l0,0c-1.1,0-4.8,0.1-7.9,3.2c-0.5,0.5-0.9,1-1.2,1.5v-1c0-6,4.4-11,10-11.7c0.7,9.3,8.2,16.7,17.4,16.7h26.3c-0.2,2-0.2,6.2,4,10.3
		c4.7,4.6,10.1,4.9,11.8,4.9l0.1-0.1c0.1-1.7-0.1-7.5-4.6-12.3c-1.2-1.3-2.5-2.2-3.7-2.8h15.1c9.6,0,17.5-8.1,17.5-18.1v-18.6
		c1.7,0,4.2-0.6,6.7-3.2C251.1,147.3,251.3,142.9,251.3,141.6z"/>
</g>
<g>
</g>
<g>
</g>
<g>
</g>
<g>
</g>
<g>
</g>
<g>
</g>
<g>
</g>
<g>
</g>
<g>
</g>
<g>
</g>
<g>
</g>
<g>
</g>
<g>
</g>
<g>
</g>
<g>
</g>
</svg>
